<svg xmlns="http://www.w3.org/2000/svg" viewBox="0 0 100 100"><defs><style>.a{fill:#009e50;}</style></defs><path class="a" d="M78,45.89a1,1,0,0,1-1,1H71.18a1,1,0,0,1-1-1v-1a1,1,0,0,1,1-1H77a1,1,0,0,1,1,1v1ZM64.62,31.48l-.71-.71a1,1,0,0,1,0-1.41l4.15-4.15a1,1,0,0,1,1.41,0l.71.71a1,1,0,0,1,0,1.41L66,31.48a1,1,0,0,1-1.42,0ZM56.87,61.11a1.23,1.23,0,0,1-1.21,1H44.34a1.21,1.21,0,0,1-1.2-1c-1.33-5.71-7.58-7.45-7.58-16.8,0-8.05,7.1-13.74,14.44-13.74s14.44,5.69,14.44,13.74c0,9.35-6.25,11.09-7.57,16.8Zm-.11,7.08a1.24,1.24,0,0,1-1.24,1.24h-11a1.24,1.24,0,0,1-1.24-1.24V66.71a1.23,1.23,0,0,1,1.24-1.24h11a1.23,1.23,0,0,1,1.24,1.24v1.48Zm-1.83,6.29v.3a.3.3,0,0,1-.06.22c-.29,2.14-2.35,3.26-4.87,3.26S45.42,77.14,45.13,75a.3.3,0,0,1-.06-.22v-.3h0v-.77a.9.9,0,0,1,.9-.91H54a.9.9,0,0,1,.9.91v.77Zm-21-43-4.15-4.15a1,1,0,0,1,0-1.41l.7-.71a1,1,0,0,1,1.42,0l4.15,4.15a1,1,0,0,1,0,1.41l-.71.71a1,1,0,0,1-1.41,0ZM29.82,45.89a1,1,0,0,1-1,1H23a1,1,0,0,1-1-1v-1a1,1,0,0,1,1-1h5.86a1,1,0,0,1,1,1v1ZM48.5,18.35a1,1,0,0,1,1-1h1a1,1,0,0,1,1,1v5.87a1,1,0,0,1-1,1h-1a1,1,0,0,1-1-1V18.35Zm36.91-3.67a50,50,0,1,0-.07,70.71,49.84,49.84,0,0,0,.07-70.71Z"/></svg>