<svg width="40" height="40" id="Layer_1" data-name="Layer 1" xmlns="http://www.w3.org/2000/svg" viewBox="0 0 100 100">
  <defs>
    <style>
      .cls-1 {
        fill: #419e6f;
      }
    </style>
  </defs>
  <path class="cls-1" d="M50,0a50,50,0,1,0,50,50A50,50,0,0,0,50,0ZM76.87347,52.49426a2.50859,2.50859,0,0,1-2.50195,2.501h-19.377v19.3772a2.50839,2.50839,0,0,1-2.501,2.501H47.49847a2.505,2.505,0,0,1-2.49395-2.43481V54.99524H25.6275a2.50839,2.50839,0,0,1-2.501-2.501V47.49915a2.50491,2.50491,0,0,1,2.435-2.4939h19.443V25.56238a2.50565,2.50565,0,0,1,2.49395-2.43579h4.99506a2.50859,2.50859,0,0,1,2.501,2.502V45.00525h19.443a2.5058,2.5058,0,0,1,2.436,2.4939Z"/>
</svg>
