<svg id="Layer_1" data-name="Layer 1" xmlns="http://www.w3.org/2000/svg" viewBox="0 0 100 100">
  <defs>
    <style>
      .cls-1 {
        fill: #009e50;
      }

      .cls-2 {
        fill: #fff;
      }
    </style>
  </defs>
  <path class="cls-1" d="M50,0a50,50,0,1,0,50,50A50,50,0,0,0,50,0Z"/>
  <path class="cls-2" d="M68.66949,23.61847h-37.339a2.83472,2.83472,0,0,0-2.835,2.835v47.093a2.83467,2.83467,0,0,0,2.835,2.835h11.123a1.41732,1.41732,0,0,0,1.418-1.417V64.3175a1.41706,1.41706,0,0,1,1.417-1.417h8.165a1.41706,1.41706,0,0,1,1.417,1.417v10.647a1.41732,1.41732,0,0,0,1.418,1.417h12.381a2.83529,2.83529,0,0,0,2.835-2.835v-47.093A2.83534,2.83534,0,0,0,68.66949,23.61847Zm-27.77,33.448h-7.493v-6.248h7.493Zm0-10.642h-7.493v-6.248h7.493Zm0-10.087h-7.493v-6.248h7.493Zm12.499,20.729h-7.493v-6.248h7.493Zm0-10.642h-7.493v-6.248h7.493Zm0-10.087h-7.493v-6.248h7.493Zm12.481,20.729h-7.493v-6.248h7.493Zm0-10.642h-7.493v-6.248h7.493Zm0-10.087h-7.493v-6.248h7.493Z"/>
</svg>
