<svg width="40" height="40" xmlns="http://www.w3.org/2000/svg" viewBox="0 0 100 100"><defs><style>.a{fill:#009e50;}</style></defs><path class="a" d="M76.32,51.62a1,1,0,0,1-1,1H56.12L69.73,66.19a1,1,0,0,1,0,1.36L67.5,69.78a1,1,0,0,1-1.35,0L52.56,56.19V75.38a1,1,0,0,1-1,1H48.44a1,1,0,0,1-.95-1V56.19L33.9,69.78a1,1,0,0,1-1.35,0l-2.24-2.23a1,1,0,0,1,0-1.36L43.93,52.58H24.68a1,1,0,0,1-.95-1V48.46a1,1,0,0,1,.95-1H43.87L30.31,33.94a1,1,0,0,1,0-1.35l2.24-2.23a.94.94,0,0,1,1.35,0L47.49,43.94V24.7a1,1,0,0,1,.95-1H51.6a1,1,0,0,1,1,1V43.94L66.15,30.36a.94.94,0,0,1,1.35,0l2.23,2.23a.94.94,0,0,1,0,1.35L56.17,47.5H75.36a1,1,0,0,1,1,1v3.16ZM50,0a50,50,0,1,0,50,50A50,50,0,0,0,50,0Z"/></svg>