<svg width="40" height="40" id="Layer_1" data-name="Layer 1" xmlns="http://www.w3.org/2000/svg" viewBox="0 0 100 100">
  <defs>
    <style>
      .cls-1 {
        fill: #419e6f;
      }
    </style>
  </defs>
  <g>
    <circle class="cls-1" cx="47.06664" cy="46.51701" r="5.26525" transform="translate(-9.4283 12.05801) rotate(-13.28246)"/>
    <path class="cls-1" d="M50,0a50,50,0,1,0,50,50A50,50,0,0,0,50,0ZM37.91705,21.26318a1.51417,1.51417,0,0,1,1.514-1.514H55.004a1.51356,1.51356,0,0,1,1.514,1.514v2.877a1.51361,1.51361,0,0,1-1.514,1.514h-.767a1.51333,1.51333,0,0,0-1.514,1.513v3.788a15.458,15.458,0,0,0-11.011-.068v-3.72a1.51271,1.51271,0,0,0-1.514-1.513h-.767a1.51422,1.51422,0,0,1-1.514-1.514Zm18.6012,51.43763a1.51417,1.51417,0,0,1-1.514,1.514h-15.573a1.51422,1.51422,0,0,1-1.514-1.514v-2.877a1.51422,1.51422,0,0,1,1.514-1.514h.767a1.51338,1.51338,0,0,0,1.514-1.513v-4.428a15.443,15.443,0,0,0,11.011-.068v4.496a1.51333,1.51333,0,0,0,1.514,1.513h.767a1.51417,1.51417,0,0,1,1.514,1.514ZM47.06665,60.812a14.295,14.295,0,1,1,14.295-14.295A14.295,14.295,0,0,1,47.06665,60.812Zm27.05109-5.151a1.51417,1.51417,0,0,1-1.514,1.514h-1.677c.031.122-1.015,3.033-1.015,3.033s-.678,1.514-1.514,1.514h-.879c-.837,0-1.514-1.514-1.514-1.514s-1.047-2.911-1.015-3.033h-1.578a1.51416,1.51416,0,0,1-1.514-1.514V54.194a15.66722,15.66722,0,0,0,0-15.132V38.053a1.51416,1.51416,0,0,1,1.514-1.514h9.192a1.51417,1.51417,0,0,1,1.514,1.514Z"/>
  </g>
</svg>
