<svg width="40" height="40" xmlns="http://www.w3.org/2000/svg" viewBox="0 0 100 100"><defs><style>.a{fill:#009e50;}</style></defs><rect class="a" x="47.47" y="50" width="7.54" height="10" rx="1.21"/><path class="a" d="M63.82,50H58.71a1.21,1.21,0,0,0-1.21,1.21V58.8A1.21,1.21,0,0,0,58.71,60h5.11A1.21,1.21,0,0,0,65,58.8V51.21A1.21,1.21,0,0,0,63.82,50Z"/><rect class="a" x="57.5" y="62.5" width="7.53" height="10" rx="1.21"/><rect class="a" x="47.47" y="62.5" width="7.54" height="10" rx="1.21"/><path class="a" d="M85.41,14.68a50,50,0,1,0-.07,70.71A49.84,49.84,0,0,0,85.41,14.68Zm-26,20.85,7.15-7.14a1.2,1.2,0,0,1,1.7,0l.93.93a1.2,1.2,0,0,1,0,1.7L62,38.16a1.2,1.2,0,0,1-1.7,0l-.93-.92A1.21,1.21,0,0,1,59.41,35.53ZM45.66,21.2A1.21,1.21,0,0,1,46.86,20h1.31a1.21,1.21,0,0,1,1.21,1.21V31.3a1.21,1.21,0,0,1-1.21,1.2H46.86a1.2,1.2,0,0,1-1.2-1.2ZM17.52,50.65V49.34a1.21,1.21,0,0,1,1.21-1.2H28.8A1.21,1.21,0,0,1,30,49.34v1.31a1.21,1.21,0,0,1-1.21,1.21H18.73A1.21,1.21,0,0,1,17.52,50.65Zm18.08,14-7.14,7.14a1.21,1.21,0,0,1-1.71,0l-.93-.93a1.2,1.2,0,0,1,0-1.7L33,62a1.22,1.22,0,0,1,1.7,0l.93.93A1.21,1.21,0,0,1,35.6,64.61Zm0-27.37-.93.92a1.2,1.2,0,0,1-1.7,0L25.87,31a1.2,1.2,0,0,1,0-1.7l.92-.93a1.21,1.21,0,0,1,1.71,0l7.14,7.14A1.21,1.21,0,0,1,35.64,37.24ZM77.48,72.5A2.5,2.5,0,0,1,75,75H47.51A2.51,2.51,0,0,1,45,72.5V61h0A11.22,11.22,0,1,1,58.45,47.5H75a2.51,2.51,0,0,1,2.5,2.5Z"/><rect class="a" x="67.5" y="50" width="7.49" height="10" rx="1.21"/><rect class="a" x="67.5" y="62.5" width="7.49" height="10" rx="1.21"/></svg>