<svg id="Layer_1" data-name="Layer 1" xmlns="http://www.w3.org/2000/svg" viewBox="0 0 100 100">
  <defs>
    <style>
      .cls-1 {
        fill: #419e6f;
      }
    </style>
  </defs>
  <g>
    <path class="cls-1" d="M66.80682,36.4729H58.17719c-.53858.26953-2.1167,3.56836-2.1167,9.668,0,6.10059,1.57812,9.39941,2.206,9.68359l.272-.01465h13.4256a18.47261,18.47261,0,0,1,.00006-19.33691Z"/>
    <path class="cls-1" d="M76.30316,36.469l-.20764.002-.017.002c-.93994.19922-3.84668,4.01465-3.84668,9.66895,0,5.66363,2.9162,9.48162,3.85083,9.668h.26587c.76709-.21,3.11572-3.86816,3.11572-9.66894S77.11566,36.68286,76.30316,36.469Z"/>
    <path class="cls-1" d="M53.06049,46.14087c0-6.30566,1.582-12.668,5.1167-12.668h4.0014c-1.46417-3.73029-3.46631-5.94141-5.35883-5.94141-.02508,0-.04864-.00555-.07348-.00659-.01715.00049-.03333.00464-.05054.00464-3.48145,0-8.74512,7.52637-8.74512,18.87012,0,10.41211,4.78418,18.7959,8.74512,18.7959.022,0,.04242.00555.06421.00634.02026-.00067.03937-.00537.05981-.00537,1.972,0,4.06678-2.38165,5.54364-6.38672H58.17719C54.64252,58.80981,53.06049,52.44653,53.06049,46.14087Z"/>
    <path class="cls-1" d="M50,0a50,50,0,1,0,50,50A50,50,0,0,0,50,0ZM76.99213,58.73267a1.50282,1.50282,0,0,1-.47559.07714H66.12579c-1.93615,6.07038-5.30694,9.9375-9.306,9.9375-.0119,0-.02288-.00317-.03473-.00341l-1.29632.07177q-.04908.00294-.09815.00293H32.13861a1.76515,1.76515,0,0,1-.84863-.21582c-5.72119-1.15039-9.95215-10.46289-9.95215-22.20215,0-11.77539,4.23-21.11718,9.95068-22.27441a1.77033,1.77033,0,0,1,.8501-.2168H56.43353a1.77709,1.77709,0,0,1,.45362.05957l.10766.02845c3.81482.10968,7.04083,3.75818,8.97052,9.47546H76.34857c3.25781,0,6.11572,5.91992,6.11572,12.668C82.46429,52.44165,79.97357,58.0188,76.99213,58.73267Z"/>
  </g>
</svg>
