<svg width="40" height="40" xmlns="http://www.w3.org/2000/svg" viewBox="0 0 100 100"><defs><style>.a{fill:#009e50;}</style></defs><path class="a" d="M50,0a50,50,0,1,0,50,50A50,50,0,0,0,50,0ZM46.53,77.55a13,13,0,0,1-8.78-7.72,13.26,13.26,0,0,1,3.17-14.72.8.8,0,0,0,.33-.66V30.84a8.81,8.81,0,0,1,10.63-8.58,8.94,8.94,0,0,1,6.93,8.85V54.45a.65.65,0,0,0,.33.66,13.11,13.11,0,0,1,4.15,9.64A13.29,13.29,0,0,1,46.53,77.55Z"/><path class="a" d="M56,56.7a.77.77,0,0,1-.39-.73V30.84A5.61,5.61,0,0,0,49.5,25.3a5.81,5.81,0,0,0-5,5.87V56a.91.91,0,0,1-.39.72,10,10,0,0,0-3,12.74,9.78,9.78,0,0,0,6,5A10.07,10.07,0,0,0,56,56.7Zm-6,15a6.94,6.94,0,0,1-2.28-13.49V38.26a.86.86,0,0,1,.86-.86h2.84a.86.86,0,0,1,.87.86V58.19A6.94,6.94,0,0,1,50,71.68Z"/></svg>