<svg xmlns="http://www.w3.org/2000/svg" viewBox="0 0 100 100"><defs><style>.a{fill:#009e50;}</style></defs><path class="a" d="M74,47.61v2.68a1,1,0,0,1-1,1H67.6a1,1,0,0,1-1-1V47.61a1,1,0,0,1,1-1H73a1,1,0,0,1,1,1ZM63.46,39.72l-1.89-1.89a1,1,0,0,1,0-1.36l3.84-3.84a1,1,0,0,1,1.36,0l1.89,1.89a1,1,0,0,1,0,1.36l-3.84,3.84a1,1,0,0,1-1.36,0ZM52.28,53.26l-2.52.92a1,1,0,0,1-1.22-.58L43.71,40.26A1,1,0,0,1,44.29,39l2.52-.91A1,1,0,0,1,48,38.7L52.86,52a1,1,0,0,1-.58,1.22ZM38.52,37.83l-1.89,1.89a1,1,0,0,1-1.36,0l-3.84-3.84a1,1,0,0,1,0-1.36l1.89-1.89a1,1,0,0,1,1.36,0l3.84,3.84a1,1,0,0,1,0,1.36ZM33.65,50.29a1,1,0,0,1-1,1H27.26a1,1,0,0,1-1-1V47.61a1,1,0,0,1,1-1h5.43a1,1,0,0,1,1,1v2.68ZM47.7,27.55a1,1,0,0,1,1-1h2.68a1,1,0,0,1,1,1V33a1,1,0,0,1-1,.95H48.66a1,1,0,0,1-1-.95V27.55ZM50,22.69A27.29,27.29,0,0,0,29,67.4a32.33,32.33,0,0,1,42.28-.26A27.3,27.3,0,0,0,50,22.69Z"/><path class="a" d="M50,82A32,32,0,1,1,82,50,32,32,0,0,1,50,82ZM50,0a50,50,0,1,0,50,50A50,50,0,0,0,50,0Z"/></svg>