<svg xmlns="http://www.w3.org/2000/svg" viewBox="0 0 100 100"><defs><style>.a{fill:#009e50;}</style></defs><path class="a" d="M78.56,69.19c-2,3.5-10,2.71-17.85-1.76a33.53,33.53,0,0,1-5.61-4,11.09,11.09,0,0,0,6-9.81,10.48,10.48,0,0,0-.19-2,34.2,34.2,0,0,1,7,3c7.87,4.47,12.64,10.93,10.65,14.43ZM49.83,59.78a6.41,6.41,0,1,1,6.4-6.4,6.41,6.41,0,0,1-6.4,6.4ZM39.41,67.47C31.54,72,23.55,72.73,21.56,69.23s2.78-10,10.65-14.43a33.49,33.49,0,0,1,6.87-3,11.26,11.26,0,0,0-.17,1.85A11.07,11.07,0,0,0,45,63.54a34.11,34.11,0,0,1-5.59,3.93ZM50,21.19c4,0,7.29,7.33,7.29,16.39a34.13,34.13,0,0,1-.74,7.18,11,11,0,0,0-13.09,0,33.6,33.6,0,0,1-.75-7.18C42.7,28.52,46,21.19,50,21.19ZM50,0a50,50,0,1,0,50,50A50,50,0,0,0,50,0Z"/></svg>