<svg id="Layer_1" data-name="Layer 1" xmlns="http://www.w3.org/2000/svg" viewBox="0 0 100 100">
  <defs>
    <style>
      .cls-1 {
        fill: #009e50;
      }
    </style>
  </defs>
  <g>
    <path class="cls-1" d="M41.6499,43.3125l-7.03662,6.08887a1.50031,1.50031,0,0,0,1.96289,2.26953L43.61279,45.582A1.50031,1.50031,0,0,0,41.6499,43.3125Z"/>
    <path class="cls-1" d="M37.38135,44.582a1.49238,1.49238,0,0,0,.93066-.32422l4.01514-3.18164a1.50014,1.50014,0,1,0-1.86328-2.35156l-4.01514,3.18164a1.5,1.5,0,0,0,.93262,2.67578Z"/>
    <path class="cls-1" d="M27.20782,70.14807h45.057V26.801h-45.057Zm25.119-37.836h14.972V64.637h-14.972Zm-20.15295,0h14.972V64.637h-14.972Z"/>
    <path class="cls-1" d="M50,0a50,50,0,1,0,50,50A50,50,0,0,0,50,0ZM75.24878,70.47a2.75983,2.75983,0,0,1-2.679,2.835h-45.667a2.75972,2.75972,0,0,1-2.678-2.835V26.478a2.75971,2.75971,0,0,1,2.678-2.835h45.667a2.75982,2.75982,0,0,1,2.679,2.835Z"/>
  </g>
</svg>
